<?xml version="1.0" encoding="UTF-8"?>
<svg width="121px" height="119px" viewBox="0 0 121 119" version="1.1" xmlns="http://www.w3.org/2000/svg" xmlns:xlink="http://www.w3.org/1999/xlink">
    <!-- Generator: Sketch 57.1 (83088) - https://sketch.com -->
    <title>Group</title>
    <desc>Created with Sketch.</desc>
    <g id="Page-1" stroke="none" stroke-width="1" fill="none" fill-rule="evenodd">
        <g id="GitHub-Mark" transform="translate(-290.000000, -282.000000)" fill="#FFFFFE">
            <g id="Group" transform="translate(290.221000, 282.446000)">
                <path d="M60.388,-1.42108547e-14 C27.041,-1.42108547e-14 0,27.035 0,60.387 C0,87.068 17.303,109.704 41.297,117.689 C44.315,118.248 45.423,116.379 45.423,114.784 C45.423,113.344 45.367,108.587 45.341,103.541 C28.541,107.194 24.996,96.416 24.996,96.416 C22.249,89.436 18.291,87.58 18.291,87.58 C12.812,83.832 18.704,83.909 18.704,83.909 C24.768,84.334 27.961,90.132 27.961,90.132 C33.347,99.364 42.088,96.695 45.534,95.152 C46.076,91.25 47.641,88.584 49.368,87.077 C35.955,85.55 21.855,80.372 21.855,57.233 C21.855,50.64 24.214,45.253 28.077,41.024 C27.45,39.502 25.383,33.361 28.662,25.043 C28.662,25.043 33.733,23.42 45.273,31.233 C50.09,29.895 55.256,29.224 60.388,29.201 C65.52,29.224 70.69,29.895 75.516,31.233 C87.042,23.42 92.106,25.043 92.106,25.043 C95.393,33.361 93.325,39.502 92.698,41.024 C96.57,45.253 98.913,50.64 98.913,57.233 C98.913,80.427 84.786,85.534 71.339,87.029 C73.505,88.903 75.435,92.578 75.435,98.212 C75.435,106.291 75.365,112.794 75.365,114.784 C75.365,116.391 76.452,118.274 79.513,117.681 C103.494,109.687 120.775,87.059 120.775,60.387 C120.775,27.035 93.738,-1.42108547e-14 60.388,-1.42108547e-14" id="Fill-52"></path>
                <path d="M22.872,86.703 C22.739,87.004 22.267,87.093 21.837,86.887 C21.399,86.69 21.153,86.281 21.295,85.98 C21.425,85.671 21.898,85.586 22.335,85.791 C22.774,85.989 23.024,86.402 22.872,86.703" id="Fill-53"></path>
                <path d="M25.318,89.431 C25.03,89.698 24.467,89.574 24.085,89.152 C23.69,88.731 23.616,88.168 23.908,87.897 C24.205,87.63 24.751,87.755 25.147,88.176 C25.542,88.602 25.619,89.161 25.318,89.431" id="Fill-54"></path>
                <path d="M27.699,92.909 C27.329,93.166 26.724,92.925 26.35,92.388 C25.98,91.851 25.98,91.207 26.358,90.949 C26.733,90.691 27.329,90.923 27.708,91.456 C28.077,92.001 28.077,92.646 27.699,92.909" id="Fill-55"></path>
                <path d="M30.961,96.269 C30.63,96.634 29.925,96.536 29.409,96.038 C28.881,95.551 28.734,94.86 29.066,94.495 C29.401,94.129 30.11,94.232 30.63,94.726 C31.154,95.212 31.314,95.908 30.961,96.269" id="Fill-56"></path>
                <path d="M35.461,98.22 C35.315,98.693 34.636,98.908 33.952,98.707 C33.269,98.5 32.822,97.946 32.96,97.468 C33.102,96.992 33.784,96.768 34.473,96.983 C35.155,97.189 35.603,97.739 35.461,98.22" id="Fill-57"></path>
                <path d="M40.403,98.582 C40.42,99.08 39.84,99.493 39.122,99.501 C38.4,99.518 37.816,99.115 37.808,98.625 C37.808,98.122 38.375,97.713 39.097,97.701 C39.815,97.687 40.403,98.087 40.403,98.582" id="Fill-58"></path>
                <path d="M45.002,97.799 C45.088,98.285 44.589,98.784 43.876,98.916 C43.175,99.045 42.526,98.745 42.437,98.263 C42.35,97.765 42.858,97.266 43.558,97.137 C44.272,97.013 44.911,97.305 45.002,97.799" id="Fill-59"></path>
            </g>
        </g>
    </g>
</svg>